<?xml version="1.0" standalone="no"?><!DOCTYPE svg PUBLIC "-//W3C//DTD SVG 1.1//EN" "http://www.w3.org/Graphics/SVG/1.1/DTD/svg11.dtd"><svg t="1573092438284" class="icon" viewBox="0 0 1024 1024" version="1.1" xmlns="http://www.w3.org/2000/svg" p-id="1446" xmlns:xlink="http://www.w3.org/1999/xlink" width="200" height="200"><defs><style type="text/css"></style></defs><path d="M358.4 331.776q22.528-28.672 49.152-50.176 22.528-18.432 50.176-33.792t57.344-13.312q43.008 3.072 71.68 19.968t45.568 43.008 23.04 58.88 4.096 66.56-12.8 64.512-26.624 57.856-34.304 49.664-36.864 40.96q-27.648 28.672-58.88 54.784t-58.88 46.08-49.664 31.744-32.256 11.776q-11.264 0-31.232-12.288t-45.056-32.768-52.736-46.592-55.296-52.736q-17.408-16.384-38.912-38.4t-40.448-48.128-32.256-57.344-14.336-67.072q-3.072-71.68 33.792-122.88t103.424-65.536q32.768-6.144 65.536 7.68t59.392 33.28q30.72 22.528 57.344 54.272zM635.904 234.496q13.312 0 25.6 1.024 11.264 1.024 23.04 3.072t20.992 6.144 19.456 10.752 19.456 12.8l20.48 16.384q6.144-6.144 13.312-11.264 6.144-5.12 15.36-10.752t21.504-12.8 28.16-10.752 32.768-2.56 33.28 6.656 27.648 17.92q31.744 33.792 37.888 66.048t-1.536 60.416-23.04 49.664-27.648 33.792q-23.552 23.552-44.544 40.96t-51.712 39.936q-16.384 11.264-34.304 19.456t-27.136 8.192-19.968-8.192-26.112-20.48q-6.144-5.12-13.312-11.264t-12.288-11.264l-12.288-12.288q11.264-20.48 18.432-46.08 6.144-21.504 9.216-50.688t-3.072-62.976q-7.168-32.768-18.432-55.808t-22.528-37.376q-13.312-17.408-28.672-28.672z" p-id="1447" fill="#d81e06"></path></svg>